HIERARCHY
ROOT mixamorig:Hips
{
	OFFSET 0.000000 201.639420 0.000000
	CHANNELS 6 Xposition Yposition Zposition Xrotation Yrotation Zrotation
	JOINT mixamorig:Spine
	{
		OFFSET 0.006200 19.524994 -2.481800
		CHANNELS 3 Xrotation Yrotation Zrotation
		JOINT mixamorig:Spine1
		{
			OFFSET -0.000900 22.835007 -2.825400
			CHANNELS 3 Xrotation Yrotation Zrotation
			JOINT mixamorig:Spine2
			{
				OFFSET -0.020600 26.552490 -3.193300
				CHANNELS 3 Xrotation Yrotation Zrotation
				JOINT mixamorig:Neck
				{
					OFFSET -0.060000 30.701813 1.352200
					CHANNELS 3 Xrotation Yrotation Zrotation
					JOINT mixamorig:Head
					{
						OFFSET -0.087200 22.547607 3.670900
						CHANNELS 3 Xrotation Yrotation Zrotation
						JOINT mixamorig:HeadTop_End
						{
							OFFSET -0.830600 40.355194 7.893500
							CHANNELS 3 Xrotation Yrotation Zrotation
							End Site
							{
								OFFSET 0.000000 30.592346 0.000000
							}
						}
						JOINT mixamorig:RightEye
						{
							OFFSET -6.302100 18.118591 16.197100
							CHANNELS 3 Xrotation Yrotation Zrotation
							End Site
							{
								OFFSET 0.000000 30.592346 0.000000
							}
						}
						JOINT mixamorig:LeftEye
						{
							OFFSET 6.741500 18.382690 16.401899
							CHANNELS 3 Xrotation Yrotation Zrotation
							End Site
							{
								OFFSET 0.000000 30.592346 0.000000
							}
						}
					}
				}
				JOINT mixamorig:LeftShoulder
				{
					OFFSET 11.924900 18.230499 1.425400
					CHANNELS 3 Xrotation Yrotation Zrotation
					JOINT mixamorig:LeftArm
					{
						OFFSET 25.435989 -0.697632 -5.229300
						CHANNELS 3 Xrotation Yrotation Zrotation
						JOINT mixamorig:LeftForeArm
						{
							OFFSET 54.684776 0.000000 0.000000
							CHANNELS 3 Xrotation Yrotation Zrotation
							JOINT mixamorig:LeftHand
							{
								OFFSET 55.098175 0.000000 0.000000
								CHANNELS 3 Xrotation Yrotation Zrotation
								JOINT mixamorig:LeftHandMiddle1
								{
									OFFSET 23.369751 0.000000 0.000000
									CHANNELS 3 Xrotation Yrotation Zrotation
									JOINT mixamorig:LeftHandMiddle2
									{
										OFFSET 6.378677 0.000000 0.000000
										CHANNELS 3 Xrotation Yrotation Zrotation
										JOINT mixamorig:LeftHandMiddle3
										{
											OFFSET 6.148331 0.000000 0.000000
											CHANNELS 3 Xrotation Yrotation Zrotation
											JOINT mixamorig:LeftHandMiddle4
											{
												OFFSET 6.582504 0.000000 0.000000
												CHANNELS 3 Xrotation Yrotation Zrotation
												End Site
												{
													OFFSET -1.168900 6.395691 1.028606
												}
											}
										}
									}
								}
								JOINT mixamorig:LeftHandThumb1
								{
									OFFSET 7.235672 -3.848206 5.434273
									CHANNELS 3 Xrotation Yrotation Zrotation
									JOINT mixamorig:LeftHandThumb2
									{
										OFFSET 6.568451 -3.792297 3.792300
										CHANNELS 3 Xrotation Yrotation Zrotation
										JOINT mixamorig:LeftHandThumb3
										{
											OFFSET 6.063080 -3.500519 3.500518
											CHANNELS 3 Xrotation Yrotation Zrotation
											JOINT mixamorig:LeftHandThumb4
											{
												OFFSET 4.793182 -2.767334 2.767349
												CHANNELS 3 Xrotation Yrotation Zrotation
												End Site
												{
													OFFSET 0.101639 6.054260 1.275483
												}
											}
										}
									}
								}
								JOINT mixamorig:LeftHandIndex1
								{
									OFFSET 23.101074 -0.309540 4.992809
									CHANNELS 3 Xrotation Yrotation Zrotation
									JOINT mixamorig:LeftHandIndex2
									{
										OFFSET 6.226883 0.000000 0.000000
										CHANNELS 3 Xrotation Yrotation Zrotation
										JOINT mixamorig:LeftHandIndex3
										{
											OFFSET 6.094330 0.000000 0.000000
											CHANNELS 3 Xrotation Yrotation Zrotation
											JOINT mixamorig:LeftHandIndex4
											{
												OFFSET 5.482605 0.000000 0.000000
												CHANNELS 3 Xrotation Yrotation Zrotation
												End Site
												{
													OFFSET -1.427902 5.233032 0.797164
												}
											}
										}
									}
								}
								JOINT mixamorig:LeftHandRing1
								{
									OFFSET 22.299240 0.021149 -3.964172
									CHANNELS 3 Xrotation Yrotation Zrotation
									JOINT mixamorig:LeftHandRing2
									{
										OFFSET 6.321869 0.000000 0.000000
										CHANNELS 3 Xrotation Yrotation Zrotation
										JOINT mixamorig:LeftHandRing3
										{
											OFFSET 5.899796 0.000000 0.000000
											CHANNELS 3 Xrotation Yrotation Zrotation
											JOINT mixamorig:LeftHandRing4
											{
												OFFSET 6.517899 0.000000 0.000000
												CHANNELS 3 Xrotation Yrotation Zrotation
												End Site
												{
													OFFSET -1.637299 6.232208 0.980890
												}
											}
										}
									}
								}
								JOINT mixamorig:LeftHandPinky1
								{
									OFFSET 20.463791 -0.302338 -8.562233
									CHANNELS 3 Xrotation Yrotation Zrotation
									JOINT mixamorig:LeftHandPinky2
									{
										OFFSET 6.908646 0.000000 0.000000
										CHANNELS 3 Xrotation Yrotation Zrotation
										JOINT mixamorig:LeftHandPinky3
										{
											OFFSET 4.622849 0.000000 0.000000
											CHANNELS 3 Xrotation Yrotation Zrotation
											JOINT mixamorig:LeftHandPinky4
											{
												OFFSET 5.216080 0.000000 0.000000
												CHANNELS 3 Xrotation Yrotation Zrotation
												End Site
												{
													OFFSET -0.606308 5.116241 0.814926
												}
											}
										}
									}
								}
							}
						}
					}
				}
				JOINT mixamorig:RightShoulder
				{
					OFFSET -12.001300 18.284088 1.348900
					CHANNELS 3 Xrotation Yrotation Zrotation
					JOINT mixamorig:RightArm
					{
						OFFSET -25.308500 -0.751312 -5.164599
						CHANNELS 3 Xrotation Yrotation Zrotation
						JOINT mixamorig:RightForeArm
						{
							OFFSET -54.684429 0.000000 0.000000
							CHANNELS 3 Xrotation Yrotation Zrotation
							JOINT mixamorig:RightHand
							{
								OFFSET -55.150291 0.000000 0.000000
								CHANNELS 3 Xrotation Yrotation Zrotation
								JOINT mixamorig:RightHandMiddle1
								{
									OFFSET -23.317566 0.000000 0.000000
									CHANNELS 3 Xrotation Yrotation Zrotation
									JOINT mixamorig:RightHandMiddle2
									{
										OFFSET -6.378403 0.000000 0.000000
										CHANNELS 3 Xrotation Yrotation Zrotation
										JOINT mixamorig:RightHandMiddle3
										{
											OFFSET -6.148193 0.000000 0.000000
											CHANNELS 3 Xrotation Yrotation Zrotation
											JOINT mixamorig:RightHandMiddle4
											{
												OFFSET -6.583389 0.000000 0.000000
												CHANNELS 3 Xrotation Yrotation Zrotation
												End Site
												{
													OFFSET 1.171692 6.395905 1.029786
												}
											}
										}
									}
								}
								JOINT mixamorig:RightHandThumb1
								{
									OFFSET -7.190521 -3.860474 5.435846
									CHANNELS 3 Xrotation Yrotation Zrotation
									JOINT mixamorig:RightHandThumb2
									{
										OFFSET -6.567429 -3.791718 3.791708
										CHANNELS 3 Xrotation Yrotation Zrotation
										JOINT mixamorig:RightHandThumb3
										{
											OFFSET -6.062469 -3.500153 3.500166
											CHANNELS 3 Xrotation Yrotation Zrotation
											JOINT mixamorig:RightHandThumb4
											{
												OFFSET -4.792618 -2.767029 2.767022
												CHANNELS 3 Xrotation Yrotation Zrotation
												End Site
												{
													OFFSET -0.100327 6.053253 1.276754
												}
											}
										}
									}
								}
								JOINT mixamorig:RightHandIndex1
								{
									OFFSET -23.048981 -0.310791 4.992554
									CHANNELS 3 Xrotation Yrotation Zrotation
									JOINT mixamorig:RightHandIndex2
									{
										OFFSET -6.227539 0.000000 0.000000
										CHANNELS 3 Xrotation Yrotation Zrotation
										JOINT mixamorig:RightHandIndex3
										{
											OFFSET -6.095047 0.000000 0.000000
											CHANNELS 3 Xrotation Yrotation Zrotation
											JOINT mixamorig:RightHandIndex4
											{
												OFFSET -5.484772 0.000000 0.000000
												CHANNELS 3 Xrotation Yrotation Zrotation
												End Site
												{
													OFFSET 1.420593 5.237305 0.797056
												}
											}
										}
									}
								}
								JOINT mixamorig:RightHandRing1
								{
									OFFSET -22.246323 0.020569 -3.963762
									CHANNELS 3 Xrotation Yrotation Zrotation
									JOINT mixamorig:RightHandRing2
									{
										OFFSET -6.322128 0.000000 0.000000
										CHANNELS 3 Xrotation Yrotation Zrotation
										JOINT mixamorig:RightHandRing3
										{
											OFFSET -5.900024 0.000000 0.000000
											CHANNELS 3 Xrotation Yrotation Zrotation
											JOINT mixamorig:RightHandRing4
											{
												OFFSET -6.518356 0.000000 0.000000
												CHANNELS 3 Xrotation Yrotation Zrotation
												End Site
												{
													OFFSET 1.636398 6.232697 0.982186
												}
											}
										}
									}
								}
								JOINT mixamorig:RightHandPinky1
								{
									OFFSET -20.411011 -0.303314 -8.561701
									CHANNELS 3 Xrotation Yrotation Zrotation
									JOINT mixamorig:RightHandPinky2
									{
										OFFSET -6.907349 0.000000 0.000000
										CHANNELS 3 Xrotation Yrotation Zrotation
										JOINT mixamorig:RightHandPinky3
										{
											OFFSET -4.623840 0.000000 0.000000
											CHANNELS 3 Xrotation Yrotation Zrotation
											JOINT mixamorig:RightHandPinky4
											{
												OFFSET -5.218353 0.000000 0.000000
												CHANNELS 3 Xrotation Yrotation Zrotation
												End Site
												{
													OFFSET 0.602097 5.118835 0.816273
												}
											}
										}
									}
								}
							}
						}
					}
				}
			}
		}
	}
	JOINT mixamorig:LeftUpLeg
	{
		OFFSET 18.168400 -13.561905 -0.039000
		CHANNELS 3 Xrotation Yrotation Zrotation
		JOINT mixamorig:LeftLeg
		{
			OFFSET 0.577358 -80.825211 -3.695000
			CHANNELS 3 Xrotation Yrotation Zrotation
			JOINT mixamorig:LeftFoot
			{
				OFFSET -0.577356 -83.370262 -6.520700
				CHANNELS 3 Xrotation Yrotation Zrotation
				JOINT mixamorig:LeftToeBase
				{
					OFFSET 0.750401 -20.798306 25.135401
					CHANNELS 3 Xrotation Yrotation Zrotation
					JOINT mixamorig:LeftToe_End
					{
						OFFSET -0.000500 0.001200 19.917799
						CHANNELS 3 Xrotation Yrotation Zrotation
						End Site
						{
							OFFSET 0.000000 19.917805 0.000000
						}
					}
				}
			}
		}
	}
	JOINT mixamorig:RightUpLeg
	{
		OFFSET -18.162500 -13.585098 -0.041000
		CHANNELS 3 Xrotation Yrotation Zrotation
		JOINT mixamorig:RightLeg
		{
			OFFSET -0.595024 -80.945297 -3.631900
			CHANNELS 3 Xrotation Yrotation Zrotation
			JOINT mixamorig:RightFoot
			{
				OFFSET 0.595024 -83.218193 -6.561200
				CHANNELS 3 Xrotation Yrotation Zrotation
				JOINT mixamorig:RightToeBase
				{
					OFFSET -0.753601 -20.807106 25.115000
					CHANNELS 3 Xrotation Yrotation Zrotation
					JOINT mixamorig:RightToe_End
					{
						OFFSET 0.000299 0.001700 19.918200
						CHANNELS 3 Xrotation Yrotation Zrotation
						End Site
						{
							OFFSET 0.000000 19.918203 0.000000
						}
					}
				}
			}
		}
	}
}
MOTION
Frames: 5
Frame Time: 0.033333
-1.499271 183.945923 -0.190739 -1.233617 0.711258 1.715064 3.148097 -8.024869 7.319451 5.252499 -16.226836 7.009870 5.380913 -16.267426 6.818742 -16.568833 9.470400 -4.063127 1.795564 36.392119 1.177528 -0.000000 -0.000000 -0.000001 -0.000000 -0.000000 -0.000001 -0.000000 -0.000000 -0.000001 1.026524 -2.722783 -7.133544 -13.781844 -14.346858 -24.873667 -0.000005 -60.241012 -0.000005 -17.410564 2.135586 -29.696372 0.795798 3.218343 -27.771180 0.848499 3.316345 -28.695974 0.305583 2.032253 -17.099722 -0.000000 0.000001 0.000003 -1.540041 3.690152 6.142343 3.946752 7.971420 0.752850 -0.575601 1.586256 2.542377 0.000000 0.000001 -0.000001 0.859530 3.336381 -28.885959 0.859544 3.336381 -28.885966 0.218107 1.722580 -14.430469 0.000001 0.000001 -0.000002 1.127468 3.780689 -33.200709 0.907180 3.421202 -29.694685 0.312334 2.054104 -17.289581 -0.000002 -0.000001 -0.000000 5.069319 7.790676 -46.055187 0.869762 -0.725188 -29.334959 0.218090 1.722603 -14.430482 -0.000002 -0.000000 0.000001 1.716816 4.381425 8.487799 -21.710175 5.988767 36.792935 0.000023 63.843499 -0.000013 11.417860 -16.199815 6.554842 0.511243 -2.621509 22.067715 0.252325 -1.859708 15.452009 0.019435 -0.520580 4.275826 0.000003 0.000001 -0.000001 -1.849255 -3.581792 -6.586130 4.645038 -8.656796 -0.231321 -1.269837 0.126078 -2.098668 -0.000002 0.000000 -0.000001 0.359878 -2.212036 18.478903 0.364974 -2.227179 18.610167 0.003059 -0.206888 1.697838 0.000002 0.000003 -0.000000 0.990096 -3.581204 30.900664 0.161522 -1.492995 12.349067 0.014507 -0.449922 3.694469 -0.000002 -0.000001 0.000001 2.196779 -5.075500 46.785792 0.012253 -0.413584 3.395696 0.003065 -0.206880 1.697828 0.000000 0.000001 0.000001 25.174658 -18.473240 -10.526538 -2.025696 -10.995852 -1.137081 -3.483580 -16.592128 15.294650 -13.462424 -0.000020 -0.000006 0.000000 0.000001 0.000000 -35.034475 -18.838319 -1.502480 49.209102 8.460182 0.705543 -18.181059 6.695564 -13.581712 0.000000 0.000000 -0.000001 -0.000000 -0.000000 -0.000000 
-1.091149 183.220032 7.985654 5.774420 -6.176514 1.620887 1.742581 -6.125023 6.482762 2.933499 -13.271618 7.426470 3.030336 -13.316041 7.312199 -16.913439 9.647803 -4.358940 2.149974 36.491699 -0.194312 0.000000 0.000000 0.000000 0.000000 0.000000 0.000000 0.000000 0.000000 0.000000 1.030426 -2.395692 -7.428078 -14.654429 -11.555666 -24.036547 -0.000011 -63.036212 -0.000017 -18.282521 1.763051 -27.584440 0.697816 3.025233 -25.971928 0.729098 3.088604 -26.559032 0.261233 1.882211 -15.801820 -0.000002 -0.000000 0.000000 -1.540043 3.690148 6.142345 3.946752 7.971418 0.752843 -0.575603 1.586258 2.542384 -0.000002 0.000000 0.000001 0.735165 3.100647 -26.671100 0.735169 3.100645 -26.671096 0.186123 1.593279 -13.325592 -0.000000 0.000003 0.000001 1.011558 3.597706 -31.399356 0.783829 3.195563 -27.557290 0.267502 1.904205 -15.991636 -0.000000 0.000002 0.000001 4.766687 7.714494 -43.812098 0.743731 -0.959925 -27.128921 0.186118 1.593269 -13.325604 -0.000003 -0.000000 0.000000 1.688252 4.277416 8.395749 -18.791230 3.085384 38.043484 -0.000060 67.478765 0.000051 11.530386 -15.030916 6.932652 0.532372 -2.672914 22.524623 0.270209 -1.923218 15.994013 0.022542 -0.560626 4.605325 0.000002 -0.000006 -0.000000 -1.849255 -3.581793 -6.586125 4.645037 -8.656793 -0.231322 -1.269835 0.126075 -2.098661 -0.000001 0.000001 -0.000002 0.381886 -2.276801 19.040913 0.387130 -2.291872 19.172223 0.004166 -0.241052 1.978401 0.000001 -0.000001 -0.000001 1.018892 -3.628764 31.358385 0.175946 -1.557374 12.890849 0.017202 -0.489980 4.024002 -0.000001 0.000001 -0.000001 2.247059 -5.122085 47.351389 0.016644 -0.481831 3.956882 0.004153 -0.241067 1.978411 -0.000001 -0.000001 -0.000000 19.817418 -13.238511 -10.651723 -2.089938 -11.409793 -1.378239 -2.934908 -21.961643 9.657514 -17.953209 -0.000013 -0.000003 0.000001 0.000000 -0.000000 -39.472917 -14.212162 3.753285 47.528530 7.052172 0.501349 -12.326891 2.348519 -14.128260 -0.055645 -0.000001 0.000004 0.000000 -0.000000 -0.000000 
-1.611111 183.135620 15.972123 9.083846 -8.783132 1.059313 1.223855 -5.160905 6.191691 2.017233 -11.480554 7.318812 2.098704 -11.518036 7.241071 -17.578735 9.484748 -4.408836 1.495189 35.587878 -0.168653 0.000000 -0.000000 -0.000000 0.000000 -0.000000 -0.000000 0.000000 -0.000000 -0.000000 1.104980 -2.397621 -7.902081 -16.927661 -9.985829 -24.723398 -0.000006 -65.500968 -0.000012 -19.695861 1.211633 -25.532113 0.603738 2.824195 -24.128125 0.615654 2.850673 -24.369367 0.219343 1.727385 -14.471549 -0.000000 0.000000 -0.000000 -1.540042 3.690147 6.142348 3.946752 7.971419 0.752854 -0.575606 1.586259 2.542373 0.000000 -0.000002 0.000003 0.617269 2.854201 -24.401604 0.617244 2.854208 -24.401595 0.155965 1.460080 -12.193121 0.000002 -0.000002 0.000003 0.898783 3.406452 -29.553484 0.666231 2.959635 -25.367167 0.225110 1.749540 -14.661337 -0.000002 -0.000001 0.000001 4.459882 7.624270 -41.513524 0.623972 -1.205421 -24.867815 0.155956 1.460089 -12.193123 -0.000003 -0.000001 0.000001 1.761387 4.523154 8.669331 -16.578993 -1.494317 40.621054 0.000130 69.718295 -0.000136 8.583536 -14.411896 7.808100 0.602993 -2.837028 23.993833 0.331794 -2.126229 17.736893 0.034101 -0.689202 5.664739 0.000000 0.000001 -0.000001 -1.849255 -3.581790 -6.586131 4.645035 -8.656796 -0.231321 -1.269833 0.126079 -2.098672 0.000002 0.000002 -0.000001 0.456943 -2.483447 20.848124 0.462654 -2.498383 20.979460 0.008816 -0.350887 2.880478 -0.000001 -0.000000 -0.000002 1.114003 -3.780102 32.830370 0.226437 -1.763408 14.632980 0.027451 -0.618655 5.083373 -0.000001 0.000002 -0.000002 2.411790 -5.268457 49.170405 0.035262 -0.700870 5.761183 0.008826 -0.350878 2.880499 -0.000001 0.000006 -0.000001 5.178277 -6.504149 -9.451637 22.724891 -11.472985 -1.400834 -8.415698 -22.610984 5.025863 -29.871108 0.000002 -0.000003 -0.000001 -0.000000 -0.000000 -40.065955 -10.817065 7.446916 47.813974 4.531405 0.230415 -15.342922 1.203489 -13.098666 -0.065063 0.000003 -0.000000 0.000000 -0.000000 0.000000 
-3.154642 183.702911 23.794548 9.571929 -7.609055 0.896995 1.263983 -4.888106 5.895853 2.086554 -10.783211 6.343724 2.163895 -10.804307 6.284424 -18.361418 8.973340 -4.298427 -0.411006 33.558543 1.575714 0.000000 -0.000000 -0.000000 0.000000 -0.000000 -0.000000 0.000000 -0.000000 -0.000000 1.250267 -2.736515 -8.514671 -19.683774 -9.377967 -26.534692 0.000007 -67.472461 0.000007 -21.560539 0.452122 -23.074539 0.497139 2.573276 -21.864276 0.488895 2.552787 -21.681037 0.172806 1.535974 -12.837882 -0.000000 -0.000002 0.000000 -1.540044 3.690148 6.142346 3.946749 7.971420 0.752858 -0.575603 1.586262 2.542373 0.000001 0.000001 0.000003 0.485993 2.545445 -21.615317 0.486016 2.545431 -21.615310 0.122491 1.295665 -10.802272 -0.000000 0.000000 0.000001 0.768856 3.166722 -27.287185 0.534316 2.664010 -22.678352 0.177924 1.558257 -13.027623 0.000001 -0.000002 0.000004 4.088541 7.496863 -38.691621 0.490280 -1.513107 -22.090883 0.122522 1.295685 -10.802252 -0.000001 -0.000004 -0.000000 1.896633 4.948475 9.205334 -14.894616 -6.937432 44.595760 -0.000082 69.148630 0.000083 3.727247 -13.850106 9.092217 0.713025 -3.072029 26.128417 0.432181 -2.417503 20.268974 0.055106 -0.875509 7.203537 0.000001 0.000002 -0.000002 -1.849255 -3.581792 -6.586129 4.645039 -8.656796 -0.231321 -1.269832 0.126074 -2.098675 0.000002 -0.000002 0.000002 0.577514 -2.779160 23.473881 0.583899 -2.793797 23.605293 0.018678 -0.510239 4.190660 0.000001 -0.000003 -0.000002 1.259027 -3.995428 34.969131 0.310871 -2.059694 17.163915 0.046571 -0.805181 6.622089 -0.000001 0.000004 -0.000000 2.659214 -5.471578 51.813777 0.074579 -1.017740 8.382004 0.018670 -0.510245 4.190660 0.000000 -0.000002 0.000003 -1.220703 -2.959274 -5.340581 34.958390 -11.802034 -1.344757 -5.177830 -17.464399 4.046496 -44.456506 -0.000015 0.000004 -0.000001 0.000003 -0.000001 -37.688424 -8.329868 8.800668 47.504157 0.853190 -0.059133 -18.541894 1.240444 -11.529188 -0.007655 -0.000003 0.000002 -0.000000 -0.000001 -0.000000 
-5.547670 185.266190 31.904583 8.160362 -3.804515 2.030801 1.578372 -5.040078 4.837514 2.724142 -10.837664 4.315262 2.796210 -10.839267 4.271634 -19.045136 8.133582 -4.086092 -3.328620 30.347944 4.892279 -0.000001 0.000000 -0.000000 -0.000001 0.000000 -0.000000 -0.000001 0.000000 -0.000000 1.444067 -3.336020 -9.191777 -21.878086 -9.334831 -28.825205 0.000050 -68.853368 0.000031 -23.528011 -0.759749 -19.983788 0.375122 2.245760 -18.963025 0.347138 2.162721 -18.236030 0.121187 1.288747 -10.743712 0.000002 0.000001 -0.000001 -1.540040 3.690159 6.142348 3.946757 7.971418 0.752850 -0.575603 1.586258 2.542380 -0.000001 0.000000 -0.000001 0.339969 2.140832 -18.044885 0.339981 2.140850 -18.044877 0.085466 1.083816 -9.019261 -0.000000 -0.000002 -0.000001 0.616330 2.852184 -24.383058 0.385737 2.276476 -19.232788 0.125499 1.311221 -10.933415 -0.000001 0.000000 0.000001 3.622577 7.307285 -35.076180 0.340924 -1.916444 -18.530887 0.085482 1.083837 -9.019266 0.000000 0.000000 0.000002 2.062022 5.442346 9.883097 -13.554332 -12.097663 49.796577 0.000013 64.419107 -0.000026 -1.005702 -12.775172 10.778296 0.840137 -3.318255 28.408681 0.553508 -2.723286 22.973816 0.083056 -1.073722 8.846713 0.000000 0.000000 0.000002 -1.849256 -3.581792 -6.586131 4.645037 -8.656801 -0.231322 -1.269835 0.126075 -2.098669 0.000003 -0.000001 -0.000000 0.721124 -3.088447 26.278992 0.728214 -3.102753 26.410475 0.033204 -0.680090 5.589685 -0.000000 -0.000003 -0.000003 1.422706 -4.219214 37.254044 0.415396 -2.371597 19.867383 0.072515 -1.003667 8.265238 -0.000001 0.000004 0.000002 2.933596 -5.675681 54.638204 0.132515 -1.353714 11.180958 0.033209 -0.680092 5.589706 -0.000002 -0.000001 -0.000001 -5.985569 -1.585203 -1.013509 41.917486 -8.002495 -0.813428 3.430281 -9.395441 0.153222 -45.414788 -0.448821 6.385542 0.000000 0.000000 0.000000 -32.569982 -6.284016 8.089545 45.782471 -2.993641 -0.334763 -21.882666 1.295443 -10.015569 0.001056 0.000007 -0.000001 0.000000 -0.000000 0.000000 
